<svg width="548" height="547" viewBox="0 0 548 547" fill="none" xmlns="http://www.w3.org/2000/svg">
<path fill-rule="evenodd" clip-rule="evenodd" d="M332.991 503.199C327.7 504.513 322.363 505.666 316.955 506.611C316.062 506.932 315.12 507.158 314.168 507.327C220.374 523.572 125.76 481.941 73.994 401.594C2.94973 291.325 34.4386 144.325 144.24 73.582C188.649 44.9702 241.015 32.3087 292.962 36.93L283.888 72.8671C241.917 70.3885 199.884 81.1548 164.01 104.268C71.105 164.124 44.5591 288.514 104.678 381.825C145.143 444.631 216.531 479.515 289.76 473.662L276.966 401.155L276.87 401.153L271.158 364.711C277.008 364.815 282.964 364.406 288.899 363.376C289.965 363.197 291.011 363.094 292.062 363.115C316.666 358.563 338.314 344.045 351.885 322.985C376.034 285.461 369.083 236.805 337.586 207.39L348.165 169.15C404.259 208.047 419.852 284.91 382.577 342.762C366.587 367.601 342.576 385.927 314.827 394.918L327.218 466.987L327.276 466.95L332.991 503.199Z" fill="#E51240"/>
<path fill-rule="evenodd" clip-rule="evenodd" d="M315.785 40.0663C321.941 41.2426 328.058 42.6342 334.147 44.2972C335.474 44.6489 336.713 45.1202 337.898 45.7532C338.636 45.8491 339.41 46.0493 340.161 46.2636C362.598 52.6303 383.969 62.2864 403.579 74.9184C513.332 145.648 545.017 292.131 474.316 401.864C445.872 445.964 403.838 479.077 355.12 496.498L349.322 459.668C387.742 444.373 420.867 417.445 443.625 382.087C503.416 289.286 476.628 165.422 383.817 105.616C372.344 98.2166 360.172 92.0288 347.512 87.1716L327.494 157.458L327.601 157.516L317.718 193.276C312.179 190.369 306.345 188.033 300.322 186.327C299.691 186.162 299.059 185.936 298.452 185.691C297.75 185.572 297.07 185.439 296.384 185.246C271.543 178.524 245.032 182.59 223.437 196.503C181.212 223.708 169.186 280.275 196.5 322.669C208.61 341.466 226.843 354.794 247.382 360.923L253.474 399.66C218.128 394.056 185.962 373.706 165.816 342.438C127.548 283.041 144.542 203.912 203.668 165.818C228.768 149.646 258.594 142.936 287.92 146.515L304.904 82.754L304.987 82.7644L306.828 75.5475L315.785 40.0663Z" fill="#E51240"/>
</svg>
